HIERARCHY
ROOT Hips
{
	OFFSET -3.958830 18.904000 13.208200
	CHANNELS 6 Xposition Yposition Zposition Zrotation Yrotation Xrotation 
	JOINT LHipJoint
	{
		OFFSET 0.000000 0.000000 0.000000
		CHANNELS 3 Zrotation Yrotation Xrotation
		JOINT LeftUpLeg
		{
			OFFSET 1.800000 -1.400000 0.085000
			CHANNELS 3 Zrotation Yrotation Xrotation
			JOINT LeftLeg
			{
				OFFSET 2.215000 -6.000000 0.000000
				CHANNELS 3 Zrotation Yrotation Xrotation
				JOINT LeftFoot
				{
					OFFSET 2.500000 -6.900000 0.000000
					CHANNELS 3 Zrotation Yrotation Xrotation
					JOINT LeftToeBase
					{
						OFFSET 0.200000 -0.500000 1.950000
						CHANNELS 3 Zrotation Yrotation Xrotation
						End Site
						{
							OFFSET 0.000000 0.000000 0.000000
						}
					}
				}
			}
		}
	}
	JOINT RHipJoint
	{
		OFFSET 0.000000 0.000000 0.000000
		CHANNELS 3 Zrotation Yrotation Xrotation
		JOINT RightUpLeg
		{
			OFFSET -1.800000 -1.400000 0.085000
			CHANNELS 3 Zrotation Yrotation Xrotation
			JOINT RightLeg
			{
				OFFSET -2.215000 -6.000000 0.000000
				CHANNELS 3 Zrotation Yrotation Xrotation
				JOINT RightFoot
				{
					OFFSET -2.500000 -6.900000 0.000000
					CHANNELS 3 Zrotation Yrotation Xrotation
					JOINT RightToeBase
					{
						OFFSET -0.200000 -0.500000 1.950000
						CHANNELS 3 Zrotation Yrotation Xrotation
						End Site
						{
							OFFSET 0.000000 0.000000 0.000000
						}
					}
				}
			}
		}
	}
	JOINT LowerBack
	{
		OFFSET 0.000000 0.000000 0.000000
		CHANNELS 3 Zrotation Yrotation Xrotation
		JOINT Spine
		{
			OFFSET -0.087000 1.940000 -0.288900
			CHANNELS 3 Zrotation Yrotation Xrotation
			JOINT Spine1
			{
				OFFSET 0.000000 1.950000 0.060000
				CHANNELS 3 Zrotation Yrotation Xrotation
				JOINT Neck
				{
					OFFSET 0.000000 0.000000 0.000000
					CHANNELS 3 Zrotation Yrotation Xrotation
					JOINT Neck1
					{
						OFFSET 0.000000 1.600000 0.340000
						CHANNELS 3 Zrotation Yrotation Xrotation
						JOINT Head
						{
							OFFSET 0.000000 1.667000 -0.240000
							CHANNELS 3 Zrotation Yrotation Xrotation
							End Site
							{
								OFFSET 0.000000 0.000000 0.000000
							}
						}
					}
				}
				JOINT LeftShoulder
				{
					OFFSET 0.000000 0.000000 0.000000
					CHANNELS 3 Zrotation Yrotation Xrotation
					JOINT LeftArm
					{
						OFFSET 2.700000 1.550000 -0.730000
						CHANNELS 3 Zrotation Yrotation Xrotation
						JOINT LeftForeArm
						{
							OFFSET 5.450000 0.000000 0.000000
							CHANNELS 3 Zrotation Yrotation Xrotation
							JOINT LeftHand
							{
								OFFSET 3.450000 0.000000 0.000000
								CHANNELS 3 Zrotation Yrotation Xrotation
								JOINT LeftHandIndex1
								{
									OFFSET 0.750000 0.000000 0.000000
									CHANNELS 3 Zrotation Yrotation Xrotation
									End Site
									{
										OFFSET 0.000000 0.000000 0.000000
									}
								}
							}
						}
					}
				}
				JOINT RightShoulder
				{
					OFFSET 0.000000 0.000000 0.000000
					CHANNELS 3 Zrotation Yrotation Xrotation
					JOINT RightArm
					{
						OFFSET -2.700000 1.550000 -0.730000
						CHANNELS 3 Zrotation Yrotation Xrotation
						JOINT RightForeArm
						{
							OFFSET -5.450000 0.000000 0.000000
							CHANNELS 3 Zrotation Yrotation Xrotation
							JOINT RightHand
							{
								OFFSET -3.450000 0.000000 0.000000
								CHANNELS 3 Zrotation Yrotation Xrotation
								JOINT RightHandIndex1
								{
									OFFSET -0.750000 0.000000 0.000000
									CHANNELS 3 Zrotation Yrotation Xrotation
									End Site
									{
										OFFSET 0.000000 0.000000 0.000000
									}
								}
							}
						}
					}
				}
			}
		}
	}
}
MOTION
Frames: 6
Frame Time: 0.016667
-1.837140 16.697350 -2.772410 -3.013634 2.978778 -15.448230 -15.462643 11.439689 4.551449 3.544146 -12.024296 -33.894785 0.291741 16.600199 80.021463 1.589265 15.459974 -0.200232 0.079880 0.284530 -0.609830 18.434500 -8.676285 3.664560 1.838954 12.028274 -31.343063 -0.552690 -15.800155 79.210568 -2.650477 -13.271382 0.035864 0.263190 1.592210 0.933990 -3.392084 -2.195631 -8.828031 4.177611 -4.155926 54.985710 -9.478843 1.322269 19.484059 3.573752 0.112129 -11.482191 -0.681128 -0.040988 28.153582 -0.460960 -2.864050 -15.167060 27.751292 -21.359022 -5.485639 40.465668 -20.697772 -9.874287 10.496275 -12.318507 -1.333271 -5.005268 2.443759 0.365210 0.843120 0.105250 0.681190 -35.267228 24.945640 -0.181939 -26.343747 8.736977 -12.079930 -19.151512 25.595446 -2.941761 1.854795 -2.138950 -0.258090 0.943440 0.503800 0.600830 
-1.851820 16.642920 -2.801900 -3.017671 0.693596 -14.518650 -15.554134 11.423321 4.798545 4.865697 -12.949071 -34.958935 -2.618312 18.631139 79.524679 1.595543 15.919397 -0.302949 -0.064420 0.066170 -0.647660 18.373092 -8.521610 3.550192 4.062387 11.405999 -31.837144 -5.263914 -12.473527 80.506788 -2.523124 -13.084111 0.063170 0.199740 1.652560 0.927850 -3.180088 -2.662170 -8.864160 3.362472 -3.793925 54.481927 -8.113510 0.927512 19.415088 3.751789 0.338803 -11.509408 -0.148298 -0.229789 28.065381 -3.143420 -2.962240 -12.963730 27.626651 -21.512575 -4.621693 42.133688 -19.179821 -7.348013 1.476187 -4.344751 -1.245508 -5.055610 1.801371 0.363510 0.922090 0.004750 0.598850 -35.525997 25.215025 -0.522176 -28.338412 9.262192 -14.582212 -25.769021 28.019617 -5.003338 1.987276 -2.163416 -0.357840 0.949050 0.611360 0.531580 
-1.863640 16.652500 -2.808860 -2.623382 -1.766298 -15.228814 -15.471621 11.300539 4.950953 6.843321 -12.853089 -34.747897 -6.181831 21.848919 78.876296 1.715589 16.346728 -0.429615 -0.133230 -0.168930 -0.548690 18.426659 -8.663004 3.494315 4.204482 11.377697 -30.901966 -7.002283 -10.998880 80.835776 -2.524983 -12.789565 0.118322 0.027220 1.426260 0.827990 -3.381385 -2.224109 -8.957982 4.642147 -3.775765 56.309617 -8.929418 1.425449 17.458224 3.401502 1.084460 -13.132869 -0.018708 -0.630750 33.340487 -1.133490 -3.176360 -14.397670 24.966110 -24.870533 -1.680043 41.740178 -14.848201 -7.532258 3.118072 -2.805620 -1.661944 -4.868841 1.562115 0.659710 0.679150 0.095390 0.501950 -32.440600 27.854550 1.547462 -27.895854 6.144572 -19.489034 -37.443128 35.234390 -9.497907 2.417527 -2.109740 -0.453250 0.861780 0.588610 0.382770 
-1.888870 16.653990 -2.769830 -1.769329 -3.092342 -15.100782 -15.356036 10.887197 5.151125 8.485862 -12.919421 -36.084616 -8.719424 24.706075 79.201200 1.973045 16.972182 -0.588100 -0.256530 -0.417310 -0.573300 18.545180 -8.797177 3.474144 1.871879 11.591652 -31.753268 -5.673220 -12.237148 81.183979 -2.465706 -12.969379 -0.019332 -0.147240 1.368450 0.880590 -3.725463 -1.354601 -9.108178 7.341605 -4.291148 54.783553 -10.960181 1.848928 17.117684 3.189124 1.613084 -13.834964 0.310969 -1.038387 36.753625 -0.526630 -3.998370 -9.710850 22.194048 -28.141696 0.397635 41.150007 -14.070725 -8.912743 7.098285 -0.355759 -2.216312 -5.066961 1.727912 0.649170 0.646810 0.041600 0.400740 -29.292973 30.225541 2.699769 -24.733519 5.736741 -22.607941 -48.864375 40.475126 -15.754896 2.959132 -2.193863 -0.417330 0.644750 0.646010 0.351440 
-1.906980 16.686700 -2.715140 -1.728221 -4.794904 -15.603510 -15.333220 10.585574 5.350217 12.191054 -12.501503 -36.807515 -11.656167 27.939464 79.180320 2.014350 17.553739 -0.831299 -0.213980 -0.514970 -0.405010 18.577191 -8.738756 3.463474 -0.956650 11.727132 -32.218390 -2.436638 -15.636778 81.866846 -2.620573 -13.375398 -0.211816 -0.228360 1.175960 0.924440 -3.827383 -1.066097 -9.294322 9.384647 -4.238801 55.268797 -11.146989 2.724567 14.385666 3.252013 1.912614 -13.287945 0.499749 -0.984529 39.786091 -0.887830 -3.337540 -12.485340 17.526517 -30.257981 1.977987 41.852427 -14.452524 -9.464979 7.986051 -3.421955 -2.054366 -4.820418 1.960950 0.872350 0.500530 0.142620 0.304370 -24.703839 31.643586 3.203865 -21.411837 6.143707 -24.853066 -64.247930 48.914482 -26.503547 2.906603 -1.860203 -0.426930 0.527090 0.650340 0.214600 
-1.915900 16.718600 -2.615920 -1.591618 -7.276518 -15.532774 -15.556969 10.651388 5.578160 16.554512 -11.736533 -37.352439 -14.101586 30.979893 78.814848 2.099432 18.114876 -0.970996 -0.274740 -0.631700 -0.444340 18.395361 -8.244672 3.385414 -4.402635 11.363695 -32.950414 0.835969 -19.187657 82.440907 -2.712701 -13.979426 -0.376257 -0.279160 1.244350 0.945290 -3.296644 -2.230320 -9.464200 7.403844 -1.347361 52.349573 -5.262015 3.499998 15.087411 2.328134 1.682568 -12.841081 0.573724 0.521959 41.202834 -0.946030 -2.636710 -10.956320 15.325845 -29.452684 3.280343 35.177748 -12.460971 -6.757030 10.147398 -10.962002 -1.549299 -4.689948 2.411345 0.890290 0.533380 0.091370 0.291910 -20.386122 31.158816 3.181643 -19.528448 12.662901 -23.207393 -76.164928 50.035811 -35.826889 2.212345 -1.222290 -0.467670 0.538020 0.723590 0.200320 
